# xmcd CD database file
#
# Track frame offsets:
#	150
#	19745
#	53270
#	78118
#	101363
#	113513
#	130816
#	149053
#	167931
#	192253
#	216181
#	230821
#	249468
#	270084
#	286597
#	309360
#
# Disc length: 4431 seconds
#
# Revision: 3
# Processed by: cddbd v1.4PL0 Copyright (c) Steve Scherf et al.
# Submitted via: CDex 1.50
#
DISCID=ce114d10
DTITLE=Outkast - Greatest Hits
DYEAR=1972
DGENRE=Soul
TTITLE0=Players Ball (Original)
TTITLE1=Git up, git out
TTITLE2=D.E.E.P.
TTITLE3=Crumblin´ Erb
TTITLE4=Two Dope Boyz
TTITLE5=ATLiens
TTITLE6=Wheelz of Steel
TTITLE7=Jazzy Belle
TTITLE8=Rosa Parks
TTITLE9=Aquemini
TTITLE10=Skew it on the Bar -B (ft. Raekwon)
TTITLE11=So Fresh So Clean
TTITLE12=Ms Jackson
TTITLE13=Gasonline Dreams
TTITLE14=B.O.B. (Bombs over Baghdad)
TTITLE15=Humble Mumble
EXTD=FREEDB Kategorie: SOUL\nErscheinungsjahr: nicht bekannt.\nCD Nr.: 5 033246 250224\n YEAR: 1972
EXTT0=
EXTT1=
EXTT2=
EXTT3=
EXTT4=
EXTT5=
EXTT6=
EXTT7=
EXTT8=
EXTT9=
EXTT10=
EXTT11=
EXTT12=
EXTT13=
EXTT14=
EXTT15=
PLAYORDER=
